<svg id="Camada_1" data-name="Camada 1" xmlns="http://www.w3.org/2000/svg" viewBox="0 0 271.44 260.58"><defs><style>.cls-1{fill:#dbe9f5;}</style></defs><path class="cls-1" d="M154.47,11.73a28.53,28.53,0,0,0,5,.67,86.34,86.34,0,0,1,70.56,57.82,83.66,83.66,0,0,1,4.4,32.65,85.27,85.27,0,0,1-22.77,53.55c-.62.67-1.29,1.3-1.94,2l-.2-.2a109.35,109.35,0,0,0,6.95-10.74,82.4,82.4,0,0,0,9.91-31c2.5-23-3.15-43.74-17.34-62C196,37.63,178.82,27,157.8,23.24c-25-4.5-47.6,1.13-67.75,16.53A81.55,81.55,0,0,0,72.18,58.83c-.26.39-.56.76-.85,1.15l-.2-.18A75.56,75.56,0,0,1,81.17,44a86,86,0,0,1,60.09-32c.26,0,.58.08.74-.24Z" transform="translate(-6.02 -11.73)"/><path class="cls-1" d="M277.46,238.05c-.07.14-.19.27-.19.41,0,2.26-.39,2.33-2.64,2a7.31,7.31,0,0,0-8.52,7.3c0,5.43,0,10.86,0,16.3,0,.87-.19,1.22-1.13,1.14a20.18,20.18,0,0,0-3.11,0c-.89.07-1.16-.21-1.15-1.12.06-3.11,0-6.23,0-9.35,0-5.95,0-11.9,0-17.86,0-.93.24-1.21,1.19-1.2,3.66,0,3.33-.22,3.69,3.31.07.67.1,1.34.16,2.32,2.7-4.8,6.09-7.62,11.68-5.36Z" transform="translate(-6.02 -11.73)"/><path class="cls-1" d="M133.72,82.47a5.63,5.63,0,0,1-.39-.73c-.24-.26-.5-.5-.72-.78-10-12.6-24.65-16.35-39-12.4-7.12,2-12.73,6.26-17.49,11.8-.65.75-.74,1.13,0,1.88,6.73,6.6,13.41,13.25,20.11,19.88l18.59,18.35c1.19,1.17,1.21,1.18-.28,2a19.85,19.85,0,0,1-8,1.82,22.9,22.9,0,0,1-15.72-4.19,31.45,31.45,0,0,1-5.28-5.35c-.3-.36-.52-.72-1.17-.48-3.89,1.43-7.81,2.8-11.72,4.15-.64.22-.63.44-.26.91.86,1.1,1.69,2.22,2.52,3.34,6.4,8.63,14.78,13.84,25.59,14.8,9.94.89,18.89-1.6,26.61-8.11a59.52,59.52,0,0,0,6.13-6.37c.74-1.22,1.51-2.42,2.23-3.66a34.3,34.3,0,0,0,4.31-15.73v-2.43A34.16,34.16,0,0,0,133.72,82.47Zm-7.26,21.24a27,27,0,0,1-.76,6.28,4.72,4.72,0,0,1-.9,1.9c-.62-.57-1.25-1.11-1.84-1.69L102.89,90.3c-2.52-2.5-5.07-5-7.6-7.48-1-.94-1-1,.35-1.49a20.35,20.35,0,0,1,5.53-.94c9.09-.75,16.42,2.39,21.71,9.94A21.27,21.27,0,0,1,126.46,103.71Z" transform="translate(-6.02 -11.73)"/><path class="cls-1" d="M191,181.28c-27.47,17.89-68.4,21.17-102.11-.81A95,95,0,0,1,48.37,77.77,93.68,93.68,0,0,1,78.85,28.36a88.19,88.19,0,0,1,24.68-15.17C79.9,28.17,64.59,49,59.1,76.59A91.48,91.48,0,0,0,68,138.4c11.62,22.18,29.36,37.62,53,45.85S168,191.1,191,181.28Z" transform="translate(-6.02 -11.73)"/><path class="cls-1" d="M113.47,171.46c22.45,8.37,44.17,7.06,64.78-5.41a68.83,68.83,0,0,0,30.55-38.6,71.49,71.49,0,0,0-36.93-86.82c3.22,0,16.4,6.17,25.17,14.07A73,73,0,0,1,214.55,78a72.23,72.23,0,0,1-21,87.92C167.48,186.28,134.17,184.19,113.47,171.46Z" transform="translate(-6.02 -11.73)"/><path class="cls-1" d="M133.33,123c.74-1.22,1.51-2.42,2.23-3.66a34.3,34.3,0,0,0,4.31-15.73,22.56,22.56,0,0,0,2.32,8.59c4,7.2,9.91,11.57,18.3,12.08a21.09,21.09,0,0,0,18.52-8.1c1.72-2.1,1.72-2.11,4.23-1.21l9.57,3.43c.42.15.92.2.46.84-3.83,5.36-7.9,10.45-13.75,13.81a35.14,35.14,0,0,1-21.68,4.38c-10.19-1-18.06-6.09-24.27-14A4,4,0,0,1,133.33,123Z" transform="translate(-6.02 -11.73)"/><path class="cls-1" d="M139.87,101.14a34.16,34.16,0,0,0-6.15-18.67,5.63,5.63,0,0,1-.39-.73C138.85,74.3,146,69.3,155.22,67.68s17.72-.23,25.6,4.83a40.83,40.83,0,0,1,10.54,10.35c.61.83,1.22,1.68,1.87,2.49.34.43.32.63-.23.83-3.89,1.41-7.79,2.82-11.67,4.29-.75.28-.92-.26-1.21-.62a25.08,25.08,0,0,0-7.29-6.67,22,22,0,0,0-32.8,17C140,100.52,139.92,100.83,139.87,101.14Z" transform="translate(-6.02 -11.73)"/><path class="cls-1" d="M231,223.41a21,21,0,0,0-31.27,2.31v-2.89c0-2,0-2-2.08-2.07-1.23-.07-1.4.38-1.4,1.47q.06,23.73,0,47.45c0,2.18,0,2.11,2.19,2.21,1.12.05,1.3-.33,1.29-1.34-.05-6.23,0-12.46,0-18.69a2,2,0,0,1,.11-1.15A20.76,20.76,0,1,0,231,223.41Zm-14.54,31.71a16.57,16.57,0,0,1-12.12-5c-4.15-4-4.84-8.92-4.66-14.37.24-7.47,8.23-14.7,16.71-14.72a17.13,17.13,0,0,1,17.06,17.07C233.51,248,224.92,255.57,216.47,255.12Z" transform="translate(-6.02 -11.73)"/><path class="cls-1" d="M185.15,229.26a7.7,7.7,0,0,0-.14-1.66c-.91-4.43-3.51-7.45-7.86-8.6a10.55,10.55,0,0,0-11.27,3.41l-.94,1.07c-5-5.7-9.82-6.41-16.16-2.43-.16.1-.38.34-.5.16-.6-.89-1.46-.25-2.17-.41-1.05-.22-1.4.18-1.4,1.32,0,11.18,0,22.37,0,33.55,0,2,0,2,2.09,2.07,1,0,1.4-.2,1.4-1.35-.06-9,0-18,0-27.08a7.5,7.5,0,0,1,15,.07q0,13,0,26c0,2.34,0,2.29,2.29,2.35.93,0,1.2-.23,1.19-1.19,0-5.63,0-11.26,0-16.89,0-3.56-.07-7.12.06-10.67a7.54,7.54,0,0,1,15.05.45q0,13.06,0,26.13c0,2.15,0,2.09,2.09,2.17,1,0,1.35-.15,1.34-1.27C185.13,247.4,185.16,238.33,185.15,229.26Z" transform="translate(-6.02 -11.73)"/><path class="cls-1" d="M40.49,249a.72.72,0,0,0-.92.28c-.35.39-.72.75-1.09,1.12a16.9,16.9,0,0,1-22,1.32c-.86-.67-.93-1.05-.11-1.86,8.31-8.25,16.56-16.54,24.86-24.79.74-.73.66-1.07,0-1.74a19.73,19.73,0,0,0-18.38-5.49,20.71,20.71,0,1,0,20.82,32.31C42.49,249.71,41.48,249.37,40.49,249Zm-28-1.47a17,17,0,0,1,14-26.41,16.24,16.24,0,0,1,9.51,2.76c.61.41.81.66.17,1.3Q25,236.34,13.75,247.61C13.2,248.16,13,248.15,12.53,247.5Z" transform="translate(-6.02 -11.73)"/><path class="cls-1" d="M115.29,217.41a20.7,20.7,0,1,0,20.52,20.8C136.27,227.36,126.81,217.33,115.29,217.41Zm-.17,37.7a17,17,0,1,1,17.09-17A16.91,16.91,0,0,1,115.12,255.11Z" transform="translate(-6.02 -11.73)"/><path class="cls-1" d="M87.72,250.13a20.69,20.69,0,1,1-.63-24.89c.47.56.65.82-.25,1.22-1.74.78-2.88.81-4.48-.75-4.79-4.66-10.69-5.8-17-3.68a16.33,16.33,0,0,0-11.3,13A17.07,17.07,0,0,0,63,253.22a16.73,16.73,0,0,0,19.66-2.95c1.15-1.18,2.1-1.59,3.53-.74A10.87,10.87,0,0,0,87.72,250.13Z" transform="translate(-6.02 -11.73)"/><path class="cls-1" d="M255.4,248.84c0,4,.13,8.08,0,12.1-.15,3.62-1.31,6.92-4.37,9.2-2.68,2-5.77,2.36-9,2.1-.32,0-.63-.1-.95-.14-2.57-.3-3.09-1.13-2.26-3.62.33-1,1.09-.93,1.86-.73a10,10,0,0,0,4.39.18,5.87,5.87,0,0,0,4.8-4.48,13.12,13.12,0,0,0,.53-3.9c0-7.71,0-15.42,0-23.13,0-1,.3-1.32,1.28-1.23a16.83,16.83,0,0,0,2.75,0c.84-.06,1.1.22,1.09,1.07,0,4.19,0,8.39,0,12.58Z" transform="translate(-6.02 -11.73)"/><path class="cls-1" d="M274,265.14c-2.52,0-2.52,0-2.52-2.55s0-2.52,2.57-2.52,2.59,0,2.59,2.51S276.66,265.14,274,265.14Z" transform="translate(-6.02 -11.73)"/><path class="cls-1" d="M71.14,60.27l-.27.31c-.14-.21,0-.34.13-.46Z" transform="translate(-6.02 -11.73)"/><path class="cls-1" d="M209.26,158.57l.3-.4.2.2-.37.35Z" transform="translate(-6.02 -11.73)"/><path class="cls-1" d="M112.73,171c-.06.05-.11.12-.16.12a.6.6,0,0,1-.21-.08s.08-.12.13-.12S112.63,171,112.73,171Z" transform="translate(-6.02 -11.73)"/><path class="cls-1" d="M71,60.12c0-.11.09-.21.13-.32l.2.18-.19.29Z" transform="translate(-6.02 -11.73)"/><path class="cls-1" d="M209.39,158.72l-.25.23-.07-.08.2-.3Z" transform="translate(-6.02 -11.73)"/><path class="cls-1" d="M209.14,159c0,.09-.06.19-.19.13l.12-.21Z" transform="translate(-6.02 -11.73)"/><path class="cls-1" d="M113.15,171.37l-.16-.09s.06-.07.08-.07a.8.8,0,0,1,.16.08Z" transform="translate(-6.02 -11.73)"/></svg>